<svg xmlns:xlink="http://www.w3.org/1999/xlink" xmlns="http://www.w3.org/2000/svg" height="24" width="24">
                        <path d="M12.6143832,21 L3.99346182,21 C3.44462725,21 3,20.5550968 3,20.006476 L3,3.99345411 C3,3.44469364 3.44469709,3 3.99346182,3 L20.006608,3 C20.5552331,3 21,3.44469364 21,3.99345411 L21,20.006476 C21,20.5551667 20.5551632,21 20.006608,21 L15.4197395,21 L15.4197395,14.029408 L17.7594454,14.029408 L18.1097832,11.3128446 L15.4197395,11.3128446 L15.4197395,9.57849053 C15.4197395,8.79198274 15.6381418,8.25600363 16.7659836,8.25600363 L18.2044917,8.25537504 L18.2044917,5.82565895 C17.9557072,5.79255313 17.1017938,5.71858885 16.108332,5.71858885 C14.0343128,5.71858885 12.6143832,6.98457234 12.6143832,9.30945332 L12.6143832,11.3128446 L10.2686707,11.3128446 L10.2686707,14.029408 L12.6143832,14.029408 L12.6143832,21 L12.6143832,21 Z" id="path-1" fill="#3B5998"></path>
                    </svg>