<svg version="1.1" id="Layer_1" xmlns="http://www.w3.org/2000/svg" xmlns:xlink="http://www.w3.org/1999/xlink" x="0px" y="0px" viewBox="0 0 140 32" style="enable-background:new 0 0 140 32;" xml:space="preserve" width="140"  height="32" >
<style type="text/css">
	.st0{fill:#A90B1A;}
	.st1{fill:#FFFFFF;}
</style>
<rect y="6.6" class="st0" width="140.1" height="19"/>
<g>
	<g>
		<path class="st1" d="M27.6,13.2c-2.7,0-4.8,1.7-4.8,4.7c0,2.8,2,4.6,5,4.6c1.2,0,2.6-0.3,3.4-0.9v-1.4c-0.2,0.2-1.1,1-2.7,1    c-1.7,0-2.5-1.1-2.5-3h5.9C31.9,15.6,31,13.2,27.6,13.2z M28.9,17h-3c0-1,0.3-2.8,1.5-2.8C28.6,14.2,29,15.8,28.9,17z M21.6,21    v-4.3c0-2.5-1.2-3.4-2.7-3.4c-1.6,0-2.6,0.8-3,1.8c0,0,0-3.3,0-5.7H2.2v3.4L3,13v-1.5c0-0.6,0.3-0.9,1-0.9h2.3v9.9    c0,0.8-0.2,1.2-0.9,1.2H4.3v0.6h7v-0.6h-0.8c-0.7,0-1-0.4-1-1.3v-9.8H13V21c0,0.3-0.2,0.6-0.6,0.6H12v0.6h5v-0.6h-0.6    c-0.4,0-0.6-0.2-0.6-0.6v-3.3c0-1.4,0.4-2.2,1.5-2.2c0.8,0,1.3,0.6,1.3,1.8v4.8h4.2v-0.6h-0.7C21.8,21.5,21.6,21.3,21.6,21z     M41.2,9.5c0,0-4.8,0-6.3,0v0.7h0.8c0.5,0,0.7,0.3,0.7,0.7v10c0,0.6-0.3,0.8-0.8,0.8h-0.6v0.6h6.8c2.8,0,5.5-1.9,5.5-6.2    C47.3,11.6,44.8,9.5,41.2,9.5z M41.1,21.1h-1.6V10.6c0.4,0,1.3,0,1.3,0c2.2,0,3.2,1.5,3.2,5.3C44,19.5,43.3,21.1,41.1,21.1z     M89.2,10.9h-2.9v2.6h-1v1.2h1v5.8c0,0.9,0.3,2,2.5,2c1.8,0,2.5-1.1,2.5-2.8h-0.7c0,0.8-0.2,1.5-0.8,1.5c-0.4,0-0.6-0.2-0.6-0.8    v-5.7h2.1v-1.2h-2.2V10.9z M82.4,12.9c0.9,0,1.6-0.8,1.6-1.6c0-0.9-0.8-1.6-1.6-1.6c-0.9,0-1.6,0.8-1.6,1.6    C80.8,12.1,81.6,12.9,82.4,12.9z M52.8,13.2c-2.7,0-4.8,1.7-4.8,4.7c0,2.8,2,4.6,5,4.6c1.2,0,2.6-0.3,3.4-0.9v-1.4    c-0.2,0.2-1.1,1-2.7,1c-1.7,0-2.5-1.1-2.5-3h6.1C57.3,15.6,56.3,13.2,52.8,13.2z M54.1,17h-3c0-1,0.3-2.8,1.5-2.8    S54.2,15.8,54.1,17z M69,15.6c0.4,0,0.8,0.1,1,0.3v-2.5c-0.1,0-0.2,0-0.3,0c-1.2,0-2.1,0.8-2.6,2.1v-1.9h-2.9V21    c0,0.4-0.1,0.7-0.5,0.7h-0.5v0.6h5.3v-0.6h-0.8c-0.4,0-0.6-0.2-0.6-0.6v-3.5C67.2,16.2,67.8,15.6,69,15.6z M61.2,10.9h-2.9v2.6h-1    v1.2h1v5.8c0,0.9,0.3,2,2.5,2c1.8,0,2.5-1.1,2.5-2.8h-0.7c0,0.8-0.2,1.5-0.8,1.5c-0.4,0-0.6-0.2-0.6-0.8v-5.7h2.1v-1.2h-2.2V10.9z     M84.1,20.9v-7.4h-4.3v0.6h0.8c0.5,0,0.6,0.2,0.6,0.5v6.4c0,0.5-0.1,0.6-0.6,0.6h-0.7v0.6h5.4v-0.6h-0.8    C84.3,21.5,84.1,21.3,84.1,20.9z M74.8,13.2c-3.2,0-4.8,2.3-4.8,4.6c0,2.5,1.5,4.7,4.8,4.7c3.4,0,4.8-2.6,4.8-4.7    C79.6,15.6,78.2,13.2,74.8,13.2z M74.8,21.5c-1.1,0-1.7-0.9-1.7-3.7c0-2.3,0.6-3.6,1.7-3.6c1.3,0,1.7,1.2,1.7,3.6    C76.5,20.5,75.8,21.5,74.8,21.5z M107.2,9.5H103v0.7h0.9c0.4,0,0.5,0.2,0.5,0.6v7.7l-5.2-9h-4.8v0.7h0.9c0.3,0,0.5,0.2,0.5,0.5    c0,0,0,7,0,10.2c0,0.4-0.1,0.6-0.4,0.6h-1v0.6h4.4v-0.6h-1.1c-0.3,0-0.4-0.2-0.4-0.6c0-2.7,0-9,0-9l5.9,10.2h2.8V10.8    c0-0.3,0.1-0.6,0.6-0.6h0.7C107.2,10.2,107.2,9.5,107.2,9.5z M134.7,16.5c-1.2-0.2-1.9-0.5-1.9-1.3c0-0.8,0.6-1,1.6-1    c0.8,0,1.3,0.2,1.5,0.5c0.2,0.2,0.3,0.7,0.4,1h0.6v-1.9c-0.7-0.3-1.7-0.5-2.8-0.5c-2.4,0-4.1,1.1-4.1,2.9c0,1.9,1.2,2.4,2.4,2.7    c1.1,0.2,2,0.4,2,1.4c0,0.8-0.7,1.2-1.4,1.2c-0.9,0-1.7-0.2-2-0.5c-0.2-0.2-0.3-0.7-0.3-1.1h-0.7v2c0.7,0.4,2.2,0.7,3.6,0.7    c2.7,0,3.9-1.5,3.9-3.2C137.5,17.6,136.4,16.9,134.7,16.5z M111.9,13.2c-2.7,0-4.8,1.7-4.8,4.7c0,2.8,2,4.6,5,4.6    c1.2,0,2.6-0.3,3.4-0.9v-1.4c-0.2,0.2-1.1,1-2.7,1c-1.7,0-2.5-1.1-2.5-3h5.9C116.2,15.6,115.3,13.2,111.9,13.2z M113.2,17h-3    c0-1,0.3-2.8,1.5-2.8C112.9,14.2,113.3,15.8,113.2,17z M130.3,13.5h-3.7v0.6h0.7c0.4,0,0.5,0.3,0.5,0.5l-1.1,4.5l-1.6-5.7h-2.2    l-1.6,5.9l-1.1-4.5c-0.1-0.3-0.2-0.7,0.4-0.7h0.6v-0.6h-5.5v0.6h0.6c0.5,0,0.7,0.2,0.9,0.9l1.9,7.3h2.6l1.5-5.5l1.5,5.5h2.6    l1.8-7.3c0.2-0.8,0.4-0.7,0.7-0.7h0.7L130.3,13.5L130.3,13.5z"/>
	</g>
</g>
</svg>