<svg xmlns:xlink="http://www.w3.org/1999/xlink" xmlns="http://www.w3.org/2000/svg" height="24" width="24">
                        <path d="M12.0005292,3 C7.03034045,3 3,7.02928206 3,12.0005292 C3,15.6847769 5.21626389,18.8514729 8.3882519,20.2432528 C8.36285059,19.6156289 8.38401835,18.85994 8.54383489,18.1762216 C8.71741048,17.445934 9.70171106,13.2727112 9.70171106,13.2727112 C9.70171106,13.2727112 9.41488799,12.6980067 9.41488799,11.8481214 C9.41488799,10.5145528 10.1885694,9.51860998 11.1506439,9.51860998 C11.9687776,9.51860998 12.3646146,10.1335333 12.3646146,10.8701711 C12.3646146,11.6925384 11.8396543,12.9234433 11.5697654,14.0633269 C11.3443288,15.019051 12.0481566,15.796966 12.9901217,15.796966 C14.6951843,15.796966 15.843535,13.6071618 15.843535,11.0119951 C15.843535,9.04021873 14.5152584,7.56376786 12.0989593,7.56376786 C9.36937732,7.56376786 7.66854824,9.59904745 7.66854824,11.8724643 C7.66854824,12.657788 7.89927677,13.2102664 8.26124537,13.637855 C8.42847063,13.8357735 8.45069677,13.9140942 8.39036867,14.1405892 C8.34803316,14.3046393 8.24854472,14.7047098 8.2072676,14.8624096 C8.1469395,15.089963 7.96278003,15.1725172 7.75745281,15.0878462 C6.49902981,14.5745281 5.9137414,13.1975657 5.9137414,11.6491445 C5.9137414,9.09313812 8.06967719,6.0259305 12.3455636,6.0259305 C15.7821485,6.0259305 18.0439231,8.51420004 18.0439231,11.1823955 C18.0439231,14.7131769 16.0816723,17.3506791 13.1869818,17.3506791 C12.2164403,17.3506791 11.3019933,16.8257188 10.9887105,16.2298465 C10.9887105,16.2298465 10.465867,18.3032281 10.3557947,18.7032986 C10.1652849,19.3965426 9.79167402,20.0908449 9.44981478,20.6306227 C10.2594814,20.8698183 11.1146587,21 12.0005292,21 C16.9707179,21 21,16.9707179 21,12.0005292 C21,7.02928206 16.9707179,3 12.0005292,3" id="path-1" fill="#C92228"></path>
                    </svg>